<svg width="9" height="5" viewBox="0 0 9 5" fill="none" xmlns="http://www.w3.org/2000/svg">
<path d="M8.48923 1.52745L4.68674 4.78744C4.63241 4.83407 4.56991 4.85742 4.49921 4.85742C4.4285 4.85742 4.36589 4.83407 4.31153 4.78744L0.509355 1.52745C0.454884 1.48075 0.427734 1.42716 0.427734 1.36652C0.427734 1.3059 0.45497 1.25223 0.509355 1.20563L0.917228 0.855949C0.971613 0.80932 1.0342 0.786017 1.1049 0.786017C1.17561 0.786017 1.23819 0.80932 1.29258 0.855949L4.49921 3.60522L7.70595 0.855777C7.7603 0.809148 7.82292 0.785993 7.89351 0.785993C7.96433 0.785993 8.02691 0.809295 8.08127 0.855777L8.4892 1.20561C8.54356 1.25221 8.57056 1.3059 8.57056 1.36649C8.57059 1.42716 8.54358 1.48082 8.48923 1.52745Z" fill="black"/>
</svg>
